<svg width="192" height="192" viewBox="0 0 192 192" fill="none" xmlns="http://www.w3.org/2000/svg">
<rect width="192" height="192" fill="#113228" style="fill:#113228;fill:color(display-p3 0.0667 0.1961 0.1569);fill-opacity:1;"/>
<path fill-rule="evenodd" clip-rule="evenodd" d="M105.5 39H84V71C68 63.5 38.5 76.5 38.5 97.5V112C38.5 127 59.5 145.5 105.5 134.5V39ZM84 120.5V87C66.8 81.8 60 95.5 60 99.5V108C60 116.5 70.5 122 84 120.5Z" fill="white" style="fill:white;fill-opacity:1;"/>
<path d="M118 71V122C118 137.5 113.2 148.9 98 156.5L118 165C138 157 139.5 138.5 139.5 122V71H118Z" fill="white" style="fill:white;fill-opacity:1;"/>
<path d="M118 39V60H139.5V39H118Z" fill="white" style="fill:white;fill-opacity:1;"/>
</svg>
